<?xml version="1.0" encoding="UTF-8"?>
<!DOCTYPE svg PUBLIC "-//W3C//DTD SVG 1.1//EN" "http://www.w3.org/Graphics/SVG/1.1/DTD/svg11.dtd">
<!-- Creator: CorelDRAW 2020 (64 Bit) -->
<svg xmlns="http://www.w3.org/2000/svg" xml:space="preserve" width="55.0334mm" height="55.0334mm" version="1.1" style="shape-rendering:geometricPrecision; text-rendering:geometricPrecision; image-rendering:optimizeQuality; fill-rule:evenodd; clip-rule:evenodd"
viewBox="0 0 5503.34 5503.34"
 xmlns:xlink="http://www.w3.org/1999/xlink"
 xmlns:xodm="http://www.corel.com/coreldraw/odm/2003">
 <defs>
  <style type="text/css">
   <![CDATA[
    .fil1 {fill:#041D26}
    .fil2 {fill:#25808F}
    .fil0 {fill:#CCCCCC}
   ]]>
  </style>
     <clipPath id="id0">
      <path d="M2509.41 674.58l2421.33 0 0 4154.2 -2421.33 0 0 -4154.2z"/>
     </clipPath>
     <clipPath id="id1">
      <path d="M572.63 674.58l2421.33 0 0 4154.2 -2421.33 0 0 -4154.2z"/>
     </clipPath>
 </defs>
 <g id="Camada_x0020_1">
  <metadata id="CorelCorpID_0Corel-Layer"/>
  <g id="_2593648111488">
   <circle class="fil0" cx="2751.67" cy="2751.67" r="2751.67"/>
   <g>
    <g style="clip-path:url(#id0)">
     <image x="2509.41" y="674.58" width="2421.33" height="4154.2" xlink:href="ww-icon_Images\ww-icon_ImgID1.png"/>
    </g>
   </g>
   <path class="fil1" d="M3637.4 1587.52c59.71,-87.12 119.42,-174.23 179.14,-261.36 464.17,312.52 768.3,834.43 768.3,1425.51 0,508.53 -225.12,965.84 -583.23,1282.4 -116.11,-239.01 -232.53,-477.75 -348.98,-716.47 -159.76,376.33 -319.5,752.66 -478.97,1128.94 -102.7,21.01 -208.97,33.44 -318.09,36.34 -0.43,-1154.13 -0.43,-2308.28 0.98,-3462.4 109.83,3.06 215.84,15.53 317.7,36.45 -0.88,866.08 -0.88,1732.33 -0.88,2598.59 159.78,-381.14 319.54,-762.27 479.32,-1143.41 144.57,305.15 289.13,610.32 433.97,914.98 112.04,-201.16 175.53,-431.08 175.53,-675.42 0,-482.09 -247.17,-908.01 -624.79,-1164.15z"/>
   <g>
    <g style="clip-path:url(#id1)">
     <image x="572.63" y="674.58" width="2421.33" height="4154.2" xlink:href="ww-icon_Images\ww-icon_ImgID2.png"/>
    </g>
   </g>
   <path class="fil2" d="M1865.97 1587.52c-59.72,-87.12 -119.43,-174.23 -179.14,-261.36 -464.17,312.52 -768.3,834.43 -768.3,1425.51 0,508.53 225.11,965.84 583.22,1282.4 116.11,-239.01 232.54,-477.75 348.98,-716.47 159.76,376.33 319.51,752.66 478.97,1128.94 102.7,21.01 208.98,33.44 318.1,36.34 0.43,-1154.13 0.43,-2308.28 -0.99,-3462.4 -109.82,3.06 -215.84,15.53 -317.7,36.45 0.89,866.08 0.89,1732.33 0.89,2598.59 -159.78,-381.14 -319.55,-762.27 -479.33,-1143.41 -144.56,305.15 -289.13,610.32 -433.96,914.98 -112.05,-201.16 -175.53,-431.08 -175.53,-675.42 0,-482.09 247.16,-908.01 624.79,-1164.15z"/>
  </g>
 </g>
</svg>
