<?xml version="1.0" encoding="UTF-8"?>
<!DOCTYPE svg PUBLIC "-//W3C//DTD SVG 1.1//EN" "http://www.w3.org/Graphics/SVG/1.1/DTD/svg11.dtd">
<!-- Creator: CorelDRAW 2020 (64 Bit) -->
<svg xmlns="http://www.w3.org/2000/svg" xml:space="preserve" width="36.6631mm" height="34.624mm" version="1.1" style="shape-rendering:geometricPrecision; text-rendering:geometricPrecision; image-rendering:optimizeQuality; fill-rule:evenodd; clip-rule:evenodd"
viewBox="0 0 3666.34 3462.43"
 xmlns:xlink="http://www.w3.org/1999/xlink"
 xmlns:xodm="http://www.corel.com/coreldraw/odm/2003">
 <defs>
  <style type="text/css">
   <![CDATA[
    .fil0 {fill:white}
   ]]>
  </style>
 </defs>
 <g id="Camada_x0020_1">
  <metadata id="CorelCorpID_0Corel-Layer"/>
  <g id="_2593639884112">
   <path class="fil0" d="M2718.89 567.04c59.71,-87.12 119.42,-174.23 179.14,-261.36 464.17,312.52 768.31,834.44 768.31,1425.52 0,508.53 -225.12,965.85 -583.23,1282.41 -116.11,-239.01 -232.53,-477.75 -348.98,-716.48 -159.76,376.33 -319.5,752.67 -478.97,1128.95 -102.7,21.01 -208.97,33.44 -318.09,36.34 -0.43,-1154.14 -0.43,-2308.3 0.98,-3462.43 109.83,3.06 215.84,15.53 317.7,36.45 -0.88,866.09 -0.88,1732.34 -0.88,2598.61 159.78,-381.14 319.54,-762.28 479.32,-1143.42 144.57,305.15 289.13,610.32 433.97,914.99 112.04,-201.16 175.53,-431.08 175.53,-675.43 0,-482.09 -247.17,-908.02 -624.8,-1164.16z"/>
   <path class="fil0" d="M947.45 567.04c-59.72,-87.12 -119.43,-174.23 -179.14,-261.36 -464.17,312.52 -768.31,834.44 -768.31,1425.52 0,508.53 225.11,965.85 583.22,1282.41 116.11,-239.01 232.54,-477.75 348.98,-716.48 159.76,376.33 319.51,752.67 478.97,1128.95 102.7,21.01 208.98,33.44 318.1,36.34 0.43,-1154.14 0.43,-2308.3 -0.99,-3462.43 -109.82,3.06 -215.84,15.53 -317.7,36.45 0.89,866.09 0.89,1732.34 0.89,2598.61 -159.78,-381.14 -319.55,-762.28 -479.33,-1143.42 -144.56,305.15 -289.13,610.32 -433.96,914.99 -112.05,-201.16 -175.53,-431.08 -175.53,-675.43 0,-482.09 247.16,-908.02 624.8,-1164.16z"/>
  </g>
 </g>
</svg>
